<svg xmlns="http://www.w3.org/2000/svg" viewBox="0 0 584.23 49.74"><defs><style>.cls-1{opacity:0.27;}.cls-2{fill:#010015;stroke:#fff;stroke-miterlimit:10;}</style></defs><g id="katman_2" data-name="katman 2"><g id="katman_1-2" data-name="katman 1"><g class="cls-1"><path class="cls-2" d="M20.18,49Q.5,49,.5,36.61V13.13Q.5.77,20.18.77H52.77a2.17,2.17,0,0,1,2.09.89,5.76,5.76,0,0,1,.5,2.7,5.74,5.74,0,0,1-.5,2.69,2.18,2.18,0,0,1-2.09.9H20.45Q14.6,8,11.94,9.44c-1.78,1-2.66,2.23-2.66,3.69V36.61c0,1.42.88,2.64,2.66,3.65s4.61,1.53,8.51,1.53H52.83c1.07,0,1.75.3,2.06.9a6.06,6.06,0,0,1,.47,2.69A6.06,6.06,0,0,1,54.89,48c-.31.63-1,.94-2.06.94Z"/><path class="cls-2" d="M60.94,5.82a3.61,3.61,0,0,1-1.39-2.66A2.25,2.25,0,0,1,60.68,1.3,6.48,6.48,0,0,1,64.34.5a6.36,6.36,0,0,1,2.22.3,5,5,0,0,1,1.5,1L89.4,22.51,110.68,1.76a4.15,4.15,0,0,1,1.47-1,6.65,6.65,0,0,1,2.26-.3,6.78,6.78,0,0,1,3.65.76,2.24,2.24,0,0,1,1.13,1.9,3.61,3.61,0,0,1-1.39,2.66L93.79,29V46.12a2.57,2.57,0,0,1-1.13,2.52,7.26,7.26,0,0,1-3.32.6,7.09,7.09,0,0,1-3.26-.6A2.59,2.59,0,0,1,85,46.12V29Z"/><path class="cls-2" d="M183.3,35.21a12.87,12.87,0,0,1-1.7,6.95,12,12,0,0,1-4.42,4.19,19.24,19.24,0,0,1-6.29,2.06,45.44,45.44,0,0,1-7.21.57H126.11c-2,0-3.06-1-3.06-3.13v-42q0-3,3.06-3h37a49.29,49.29,0,0,1,7.91.59,17.24,17.24,0,0,1,6.18,2.17,10.9,10.9,0,0,1,4,4.22,14.42,14.42,0,0,1,1.43,6.85,13.39,13.39,0,0,1-1.3,6.11A10.06,10.06,0,0,1,176.58,25a10.9,10.9,0,0,1,4.89,3.42Q183.3,30.75,183.3,35.21Zm-9.05.27a11.34,11.34,0,0,0-.4-3.26,4.08,4.08,0,0,0-1.59-2.2,8.21,8.21,0,0,0-3.36-1.23,35.5,35.5,0,0,0-5.62-.36H131.89V41.79h32.32a30.72,30.72,0,0,0,5.25-.36,7.72,7.72,0,0,0,3.06-1.13,3.55,3.55,0,0,0,1.4-2A10.92,10.92,0,0,0,174.25,35.48Zm-42.16-14.3h31.66a38.15,38.15,0,0,0,5-.27A8.76,8.76,0,0,0,172,20a3.87,3.87,0,0,0,1.73-2,9.83,9.83,0,0,0,.5-3.43,10.16,10.16,0,0,0-.4-3,4,4,0,0,0-1.5-2.06,7.53,7.53,0,0,0-3.09-1.17A29.78,29.78,0,0,0,164.08,8h-32Z"/><path class="cls-2" d="M196.19,28.83v7.78q0,2.13,2.66,3.65c1.78,1,4.61,1.53,8.52,1.53h31.78a2.21,2.21,0,0,1,2.1.9,5.76,5.76,0,0,1,.49,2.69,5.76,5.76,0,0,1-.49,2.66,2.16,2.16,0,0,1-2.1.94H207.1q-19.68,0-19.68-12.37V13.13Q187.42.77,207.1.77H217a2.12,2.12,0,0,1,2,.89,5.77,5.77,0,0,1,.49,2.7A5.76,5.76,0,0,1,219,7.05a2.12,2.12,0,0,1-2,.9h-9.64c-3.91,0-6.74.5-8.52,1.49s-2.66,2.23-2.66,3.69v8.52h43.16a2.2,2.2,0,0,1,2.1.89,5.77,5.77,0,0,1,.49,2.7,5.76,5.76,0,0,1-.49,2.69,2.21,2.21,0,0,1-2.1.9Z"/><path class="cls-2" d="M247.33,3.82q0-3,3.13-3h37.37a39.61,39.61,0,0,1,8.14.76,22.11,22.11,0,0,1,6.15,2.16A11,11,0,0,1,306,7.08a7.73,7.73,0,0,1,1.37,4.46v8.38A7.7,7.7,0,0,1,306,24.37a11,11,0,0,1-3.89,3.39A21.79,21.79,0,0,1,296,29.92a39.57,39.57,0,0,1-8.14.77h-7.75c-1.44,0-2.72,0-3.82,0s-2.11-.06-3-.1l-2.59-.14v.14l2.29.83,3,1.09c1.2.45,2.65,1,4.35,1.67s3.83,1.5,6.36,2.52l16,6.45a3.05,3.05,0,0,1,2.13,3,2.61,2.61,0,0,1-1.16,2.46,6.94,6.94,0,0,1-3.36.66l-1.17,0c-.46,0-.94-.07-1.43-.14a13.82,13.82,0,0,1-1.43-.26,4.23,4.23,0,0,1-1.23-.5l-38.9-16.82V46.12A2.57,2.57,0,0,1,255,48.64a7.26,7.26,0,0,1-3.32.6,7.09,7.09,0,0,1-3.26-.6,2.59,2.59,0,0,1-1.13-2.52ZM256.17,8V23.64H287a39.55,39.55,0,0,0,5.62-.33,14.65,14.65,0,0,0,3.55-.9,4.27,4.27,0,0,0,1.87-1.33,2.93,2.93,0,0,0,.53-1.7V12.2a3,3,0,0,0-.53-1.66,4.08,4.08,0,0,0-1.87-1.36,14.65,14.65,0,0,0-3.55-.9A39.55,39.55,0,0,0,287,8Z"/><path class="cls-2" d="M373.27,36.61Q373.27,49,353.59,49h-37.7c-2,0-3.06-1-3.06-3.13v-42q0-3,3.06-3h37.7q19.68,0,19.68,12.36Zm-51.6,5.18h31.65q5.85,0,8.55-1.53t2.69-3.65V13.13q0-2.19-2.69-3.69T353.32,8H321.67Z"/><path class="cls-2" d="M378.92,3.82q0-3,3.13-3h37.37a39.54,39.54,0,0,1,8.14.76,22.11,22.11,0,0,1,6.15,2.16,10.94,10.94,0,0,1,3.89,3.39A7.73,7.73,0,0,1,439,11.54v8.38a7.7,7.7,0,0,1-1.37,4.45,10.94,10.94,0,0,1-3.89,3.39,21.79,21.79,0,0,1-6.15,2.16,39.5,39.5,0,0,1-8.14.77h-7.75c-1.44,0-2.71,0-3.82,0s-2.11-.06-3-.1l-2.6-.14v.14l2.3.83c.82.29,1.83.65,3,1.09s2.65,1,4.36,1.67,3.82,1.5,6.35,2.52l16,6.45a3.05,3.05,0,0,1,2.13,3,2.61,2.61,0,0,1-1.16,2.46,6.94,6.94,0,0,1-3.36.66l-1.16,0a14.11,14.11,0,0,1-1.43-.14,12.92,12.92,0,0,1-1.43-.26,4,4,0,0,1-1.23-.5l-38.9-16.82V46.12a2.59,2.59,0,0,1-1.13,2.52,7.33,7.33,0,0,1-3.33.6,7.12,7.12,0,0,1-3.26-.6,2.59,2.59,0,0,1-1.13-2.52ZM387.77,8V23.64h30.85a39.55,39.55,0,0,0,5.62-.33,14.88,14.88,0,0,0,3.56-.9,4.29,4.29,0,0,0,1.86-1.33,2.93,2.93,0,0,0,.53-1.7V12.2a3,3,0,0,0-.53-1.66,4.1,4.1,0,0,0-1.86-1.36,14.88,14.88,0,0,0-3.56-.9A39.55,39.55,0,0,0,418.62,8Z"/><path class="cls-2" d="M463.5,49q-19.68,0-19.68-12.37V13.13Q443.82.77,463.5.77h19.35q19.69,0,19.69,12.36V36.61Q502.54,49,482.85,49Zm19.09-7.19q5.85,0,8.51-1.53t2.66-3.65V13.13q0-2.19-2.66-3.69T482.59,8H463.77q-5.85,0-8.51,1.49t-2.66,3.69V36.61q0,2.13,2.66,3.65t8.51,1.53Z"/><path class="cls-2" d="M517,46.12a2.57,2.57,0,0,1-1.13,2.52,7.26,7.26,0,0,1-3.32.6,7.09,7.09,0,0,1-3.26-.6,2.59,2.59,0,0,1-1.13-2.52V3.62a2.59,2.59,0,0,1,1.13-2.52,7.09,7.09,0,0,1,3.26-.6,7.26,7.26,0,0,1,3.32.6A2.57,2.57,0,0,1,517,3.62Z"/><path class="cls-2" d="M583.73,36.61Q583.73,49,564,49h-37.7c-2,0-3.06-1-3.06-3.13v-42q0-3,3.06-3H564q19.69,0,19.69,12.36Zm-51.6,5.18h31.65q5.85,0,8.54-1.53t2.7-3.65V13.13q0-2.19-2.7-3.69T563.78,8H532.13Z"/></g></g></g></svg>